<svg id="visual" viewBox="0 0 900 600" width="900" height="600" xmlns="http://www.w3.org/2000/svg" xmlns:xlink="http://www.w3.org/1999/xlink" version="1.1"><rect x="0" y="0" width="900" height="600" fill="#0B0C10"></rect><defs><linearGradient id="grad1_0" x1="33.3%" y1="0%" x2="100%" y2="100%"><stop offset="20%" stop-color="#45a29e" stop-opacity="1"></stop><stop offset="80%" stop-color="#45a29e" stop-opacity="1"></stop></linearGradient></defs><defs><linearGradient id="grad1_1" x1="33.3%" y1="0%" x2="100%" y2="100%"><stop offset="20%" stop-color="#45a29e" stop-opacity="1"></stop><stop offset="80%" stop-color="#388a90" stop-opacity="1"></stop></linearGradient></defs><defs><linearGradient id="grad1_2" x1="33.3%" y1="0%" x2="100%" y2="100%"><stop offset="20%" stop-color="#31737f" stop-opacity="1"></stop><stop offset="80%" stop-color="#388a90" stop-opacity="1"></stop></linearGradient></defs><defs><linearGradient id="grad1_3" x1="33.3%" y1="0%" x2="100%" y2="100%"><stop offset="20%" stop-color="#31737f" stop-opacity="1"></stop><stop offset="80%" stop-color="#2e5c6b" stop-opacity="1"></stop></linearGradient></defs><defs><linearGradient id="grad1_4" x1="33.3%" y1="0%" x2="100%" y2="100%"><stop offset="20%" stop-color="#2a4655" stop-opacity="1"></stop><stop offset="80%" stop-color="#2e5c6b" stop-opacity="1"></stop></linearGradient></defs><defs><linearGradient id="grad1_5" x1="33.3%" y1="0%" x2="100%" y2="100%"><stop offset="20%" stop-color="#2a4655" stop-opacity="1"></stop><stop offset="80%" stop-color="#23323e" stop-opacity="1"></stop></linearGradient></defs><defs><linearGradient id="grad1_6" x1="33.3%" y1="0%" x2="100%" y2="100%"><stop offset="20%" stop-color="#1a1f27" stop-opacity="1"></stop><stop offset="80%" stop-color="#23323e" stop-opacity="1"></stop></linearGradient></defs><defs><linearGradient id="grad1_7" x1="33.3%" y1="0%" x2="100%" y2="100%"><stop offset="20%" stop-color="#1a1f27" stop-opacity="1"></stop><stop offset="80%" stop-color="#0b0c10" stop-opacity="1"></stop></linearGradient></defs><defs><linearGradient id="grad2_0" x1="0%" y1="0%" x2="66.7%" y2="100%"><stop offset="20%" stop-color="#45a29e" stop-opacity="1"></stop><stop offset="80%" stop-color="#45a29e" stop-opacity="1"></stop></linearGradient></defs><defs><linearGradient id="grad2_1" x1="0%" y1="0%" x2="66.7%" y2="100%"><stop offset="20%" stop-color="#388a90" stop-opacity="1"></stop><stop offset="80%" stop-color="#45a29e" stop-opacity="1"></stop></linearGradient></defs><defs><linearGradient id="grad2_2" x1="0%" y1="0%" x2="66.7%" y2="100%"><stop offset="20%" stop-color="#388a90" stop-opacity="1"></stop><stop offset="80%" stop-color="#31737f" stop-opacity="1"></stop></linearGradient></defs><defs><linearGradient id="grad2_3" x1="0%" y1="0%" x2="66.7%" y2="100%"><stop offset="20%" stop-color="#2e5c6b" stop-opacity="1"></stop><stop offset="80%" stop-color="#31737f" stop-opacity="1"></stop></linearGradient></defs><defs><linearGradient id="grad2_4" x1="0%" y1="0%" x2="66.7%" y2="100%"><stop offset="20%" stop-color="#2e5c6b" stop-opacity="1"></stop><stop offset="80%" stop-color="#2a4655" stop-opacity="1"></stop></linearGradient></defs><defs><linearGradient id="grad2_5" x1="0%" y1="0%" x2="66.7%" y2="100%"><stop offset="20%" stop-color="#23323e" stop-opacity="1"></stop><stop offset="80%" stop-color="#2a4655" stop-opacity="1"></stop></linearGradient></defs><defs><linearGradient id="grad2_6" x1="0%" y1="0%" x2="66.7%" y2="100%"><stop offset="20%" stop-color="#23323e" stop-opacity="1"></stop><stop offset="80%" stop-color="#1a1f27" stop-opacity="1"></stop></linearGradient></defs><defs><linearGradient id="grad2_7" x1="0%" y1="0%" x2="66.7%" y2="100%"><stop offset="20%" stop-color="#0b0c10" stop-opacity="1"></stop><stop offset="80%" stop-color="#1a1f27" stop-opacity="1"></stop></linearGradient></defs><g transform="translate(900, 0)"><path d="M0 540.8C-22.2 532.9 -44.4 525 -61 502.3C-77.6 479.6 -88.7 442.2 -107.2 435C-125.7 427.7 -151.6 450.7 -170.6 449.7C-189.5 448.8 -201.4 424.1 -212.8 405.5C-224.3 387 -235.2 374.6 -259 375.3C-282.9 375.9 -319.8 389.6 -338.9 382.5C-357.9 375.4 -359.2 347.4 -370.5 328.2C-381.9 309.1 -403.3 298.8 -400 276.1C-396.6 253.4 -368.6 218.4 -394 206.8C-419.5 195.2 -498.5 207.1 -505.7 191.8C-512.9 176.5 -448.2 134.1 -445.7 109.8C-443.2 85.6 -502.9 79.5 -529.1 64.2C-555.3 49 -548.1 24.5 -540.8 0L0 0Z" fill="#14171c"></path><path d="M0 473.2C-19.4 466.3 -38.8 459.4 -53.4 439.5C-67.9 419.7 -77.6 387 -93.8 380.6C-110 374.3 -132.7 394.3 -149.2 393.5C-165.8 392.7 -176.2 371.1 -186.2 354.8C-196.2 338.6 -205.8 327.8 -226.7 328.4C-247.6 328.9 -279.8 340.9 -296.5 334.7C-313.2 328.4 -314.3 304 -324.2 287.2C-334.1 270.5 -352.9 261.4 -350 241.6C-347.1 221.7 -322.5 191.1 -344.8 181C-367.1 170.8 -436.2 181.2 -442.5 167.8C-448.7 154.4 -392.1 117.3 -390 96.1C-387.8 74.9 -440 69.6 -463 56.2C-485.9 42.8 -479.6 21.4 -473.2 0L0 0Z" fill="#1f2832"></path><path d="M0 405.6C-16.6 399.7 -33.3 393.7 -45.7 376.7C-58.2 359.7 -66.5 331.7 -80.4 326.2C-94.3 320.8 -113.7 338 -127.9 337.3C-142.1 336.6 -151.1 318.1 -159.6 304.2C-168.2 290.2 -176.4 281 -194.3 281.5C-212.2 282 -239.8 292.2 -254.1 286.9C-268.4 281.5 -269.4 260.5 -277.9 246.2C-286.4 231.8 -302.5 224.1 -300 207.1C-297.5 190.1 -276.4 163.8 -295.5 155.1C-314.6 146.4 -373.9 155.3 -379.3 143.8C-384.6 132.4 -336.1 100.6 -334.2 82.4C-332.4 64.2 -377.2 59.6 -396.8 48.2C-416.5 36.7 -411.1 18.4 -405.6 0L0 0Z" fill="#273c49"></path><path d="M0 338C-13.9 333.1 -27.7 328.1 -38.1 313.9C-48.5 299.8 -55.4 276.4 -67 271.9C-78.6 267.3 -94.8 281.7 -106.6 281.1C-118.4 280.5 -125.9 265.1 -133 253.5C-140.2 241.9 -147 234.1 -161.9 234.6C-176.8 235 -199.9 243.5 -211.8 239.1C-223.7 234.6 -224.5 217.1 -231.6 205.2C-238.7 193.2 -252.1 186.7 -250 172.5C-247.9 158.4 -230.3 136.5 -246.3 129.3C-262.2 122 -311.6 129.4 -316.1 119.9C-320.5 110.3 -280.1 83.8 -278.5 68.7C-277 53.5 -314.3 49.7 -330.7 40.2C-347.1 30.6 -342.6 15.3 -338 0L0 0Z" fill="#2c5160"></path><path d="M0 270.4C-11.1 266.5 -22.2 262.5 -30.5 251.2C-38.8 239.8 -44.4 221.1 -53.6 217.5C-62.9 213.9 -75.8 225.3 -85.3 224.9C-94.7 224.4 -100.7 212 -106.4 202.8C-112.1 193.5 -117.6 187.3 -129.5 187.6C-141.5 188 -159.9 194.8 -169.4 191.2C-179 187.7 -179.6 173.7 -185.3 164.1C-190.9 154.5 -201.6 149.4 -200 138C-198.3 126.7 -184.3 109.2 -197 103.4C-209.7 97.6 -249.3 103.5 -252.8 95.9C-256.4 88.2 -224.1 67 -222.8 54.9C-221.6 42.8 -251.4 39.8 -264.6 32.1C-277.7 24.5 -274 12.2 -270.4 0L0 0Z" fill="#2f6775"></path><path d="M0 202.8C-8.3 199.8 -16.6 196.9 -22.9 188.4C-29.1 179.9 -33.3 165.8 -40.2 163.1C-47.1 160.4 -56.9 169 -64 168.7C-71.1 168.3 -75.5 159 -79.8 152.1C-84.1 145.1 -88.2 140.5 -97.1 140.7C-106.1 141 -119.9 146.1 -127.1 143.4C-134.2 140.8 -134.7 130.3 -138.9 123.1C-143.2 115.9 -151.2 112 -150 103.5C-148.7 95 -138.2 81.9 -147.8 77.6C-157.3 73.2 -186.9 77.6 -189.6 71.9C-192.3 66.2 -168.1 50.3 -167.1 41.2C-166.2 32.1 -188.6 29.8 -198.4 24.1C-208.3 18.4 -205.5 9.2 -202.8 0L0 0Z" fill="#347e88"></path><path d="M0 135.2C-5.5 133.2 -11.1 131.2 -15.2 125.6C-19.4 119.9 -22.2 110.6 -26.8 108.7C-31.4 106.9 -37.9 112.7 -42.6 112.4C-47.4 112.2 -50.4 106 -53.2 101.4C-56.1 96.7 -58.8 93.7 -64.8 93.8C-70.7 94 -79.9 97.4 -84.7 95.6C-89.5 93.8 -89.8 86.8 -92.6 82.1C-95.5 77.3 -100.8 74.7 -100 69C-99.2 63.4 -92.1 54.6 -98.5 51.7C-104.9 48.8 -124.6 51.8 -126.4 47.9C-128.2 44.1 -112 33.5 -111.4 27.5C-110.8 21.4 -125.7 19.9 -132.3 16.1C-138.8 12.2 -137 6.1 -135.2 0L0 0Z" fill="#3e9697"></path><path d="M0 67.6C-2.8 66.6 -5.5 65.6 -7.6 62.8C-9.7 60 -11.1 55.3 -13.4 54.4C-15.7 53.5 -19 56.3 -21.3 56.2C-23.7 56.1 -25.2 53 -26.6 50.7C-28 48.4 -29.4 46.8 -32.4 46.9C-35.4 47 -40 48.7 -42.4 47.8C-44.7 46.9 -44.9 43.4 -46.3 41C-47.7 38.6 -50.4 37.3 -50 34.5C-49.6 31.7 -46.1 27.3 -49.3 25.9C-52.4 24.4 -62.3 25.9 -63.2 24C-64.1 22.1 -56 16.8 -55.7 13.7C-55.4 10.7 -62.9 9.9 -66.1 8C-69.4 6.1 -68.5 3.1 -67.6 0L0 0Z" fill="#45a29e"></path></g><g transform="translate(0, 600)"><path d="M0 -540.8C23.5 -538.7 47 -536.6 61.8 -509.3C76.7 -481.9 83 -429.2 107.5 -436C131.9 -442.7 174.7 -508.9 191.8 -505.7C208.9 -502.5 200.4 -429.9 213.3 -406.4C226.2 -382.9 260.6 -408.5 282.3 -409C304 -409.5 313 -384.9 321.6 -363C330.2 -341.2 338.5 -322 338.3 -299.7C338.1 -277.4 329.5 -252 358 -247.1C386.5 -242.2 452.1 -257.8 471.1 -247.2C490.1 -236.7 462.5 -199.9 464.7 -176.2C466.9 -152.6 499 -141.9 502.9 -124C506.9 -106 482.8 -80.7 484.4 -58.8C486.1 -36.9 513.5 -18.5 540.8 0L0 0Z" fill="#14171c"></path><path d="M0 -473.2C20.5 -471.4 41.1 -469.6 54.1 -445.6C67.1 -421.6 72.6 -375.6 94 -381.5C115.5 -387.4 152.8 -445.3 167.8 -442.5C182.8 -439.7 175.3 -376.2 186.6 -355.6C198 -335.1 228.1 -357.5 247 -357.9C266 -358.3 273.9 -336.8 281.4 -317.6C289 -298.5 296.2 -281.8 296 -262.3C295.9 -242.8 288.3 -220.5 313.2 -216.2C338.2 -211.9 395.6 -225.6 412.2 -216.3C428.8 -207.1 404.7 -174.9 406.6 -154.2C408.6 -133.5 436.6 -124.2 440.1 -108.5C443.6 -92.8 422.5 -70.6 423.9 -51.5C425.3 -32.3 449.3 -16.2 473.2 0L0 0Z" fill="#1f2832"></path><path d="M0 -405.6C17.6 -404.1 35.2 -402.5 46.4 -381.9C57.5 -361.4 62.2 -321.9 80.6 -327C99 -332 131 -381.7 143.8 -379.3C156.7 -376.9 150.3 -322.4 160 -304.8C169.7 -287.2 195.5 -306.4 211.7 -306.8C228 -307.1 234.7 -288.7 241.2 -272.3C247.7 -255.9 253.9 -241.5 253.7 -224.8C253.6 -208.1 247.1 -189 268.5 -185.3C289.9 -181.6 339 -193.4 353.3 -185.4C367.5 -177.5 346.9 -149.9 348.5 -132.2C350.2 -114.4 374.2 -106.4 377.2 -93C380.2 -79.5 362.1 -60.5 363.3 -44.1C364.6 -27.7 385.1 -13.9 405.6 0L0 0Z" fill="#273c49"></path><path d="M0 -338C14.7 -336.7 29.4 -335.4 38.6 -318.3C47.9 -301.2 51.8 -268.3 67.2 -272.5C82.5 -276.7 109.2 -318.1 119.9 -316.1C130.6 -314.1 125.2 -268.7 133.3 -254C141.4 -239.3 162.9 -255.3 176.5 -255.6C190 -255.9 195.6 -240.6 201 -226.9C206.4 -213.2 211.6 -201.3 211.5 -187.3C211.3 -173.4 205.9 -157.5 223.7 -154.4C241.5 -151.4 282.5 -161.1 294.4 -154.5C306.3 -147.9 289 -125 290.4 -110.1C291.8 -95.3 311.9 -88.7 314.3 -77.5C316.8 -66.3 301.8 -50.4 302.8 -36.8C303.8 -23.1 320.9 -11.5 338 0L0 0Z" fill="#2c5160"></path><path d="M0 -270.4C11.7 -269.4 23.5 -268.3 30.9 -254.6C38.4 -240.9 41.5 -214.6 53.7 -218C66 -221.4 87.3 -254.4 95.9 -252.8C104.4 -251.2 100.2 -215 106.7 -203.2C113.1 -191.5 130.3 -204.3 141.2 -204.5C152 -204.8 156.5 -192.5 160.8 -181.5C165.1 -170.6 169.3 -161 169.2 -149.9C169.1 -138.7 164.8 -126 179 -123.6C193.2 -121.1 226 -128.9 235.5 -123.6C245 -118.3 231.2 -100 232.4 -88.1C233.5 -76.3 249.5 -71 251.5 -62C253.5 -53 241.4 -40.4 242.2 -29.4C243 -18.5 256.7 -9.2 270.4 0L0 0Z" fill="#2f6775"></path><path d="M0 -202.8C8.8 -202 17.6 -201.2 23.2 -191C28.8 -180.7 31.1 -161 40.3 -163.5C49.5 -166 65.5 -190.8 71.9 -189.6C78.3 -188.4 75.1 -161.2 80 -152.4C84.8 -143.6 97.7 -153.2 105.9 -153.4C114 -153.6 117.4 -144.3 120.6 -136.1C123.8 -127.9 126.9 -120.8 126.9 -112.4C126.8 -104 123.6 -94.5 134.2 -92.7C144.9 -90.8 169.5 -96.7 176.6 -92.7C183.8 -88.7 173.4 -75 174.3 -66.1C175.1 -57.2 187.1 -53.2 188.6 -46.5C190.1 -39.8 181.1 -30.3 181.7 -22.1C182.3 -13.9 192.5 -6.9 202.8 0L0 0Z" fill="#347e88"></path><path d="M0 -135.2C5.9 -134.7 11.7 -134.2 15.5 -127.3C19.2 -120.5 20.7 -107.3 26.9 -109C33 -110.7 43.7 -127.2 47.9 -126.4C52.2 -125.6 50.1 -107.5 53.3 -101.6C56.6 -95.7 65.2 -102.1 70.6 -102.3C76 -102.4 78.2 -96.2 80.4 -90.8C82.6 -85.3 84.6 -80.5 84.6 -74.9C84.5 -69.4 82.4 -63 89.5 -61.8C96.6 -60.5 113 -64.5 117.8 -61.8C122.5 -59.2 115.6 -50 116.2 -44.1C116.7 -38.1 124.7 -35.5 125.7 -31C126.7 -26.5 120.7 -20.2 121.1 -14.7C121.5 -9.2 128.4 -4.6 135.2 0L0 0Z" fill="#3e9697"></path><path d="M0 -67.6C2.9 -67.3 5.9 -67.1 7.7 -63.7C9.6 -60.2 10.4 -53.7 13.4 -54.5C16.5 -55.3 21.8 -63.6 24 -63.2C26.1 -62.8 25 -53.7 26.7 -50.8C28.3 -47.9 32.6 -51.1 35.3 -51.1C38 -51.2 39.1 -48.1 40.2 -45.4C41.3 -42.6 42.3 -40.3 42.3 -37.5C42.3 -34.7 41.2 -31.5 44.7 -30.9C48.3 -30.3 56.5 -32.2 58.9 -30.9C61.3 -29.6 57.8 -25 58.1 -22C58.4 -19.1 62.4 -17.7 62.9 -15.5C63.4 -13.3 60.4 -10.1 60.6 -7.4C60.8 -4.6 64.2 -2.3 67.6 0L0 0Z" fill="#45a29e"></path></g></svg>